<svg xmlns="http://www.w3.org/2000/svg" width="23" height="22" fill="none" viewBox="0 0 23 22">
    <path fill="#fff" fill-rule="evenodd" d="M5.436 7.636H.854v13.746h4.582V7.636zM5.436 2.29C5.424.992 4.557 0 3.158 0 1.77 0 .854.991.854 2.29c0 1.274.88 2.292 2.254 2.292h.025c1.424 0 2.316-1.018 2.303-2.291zM13.754 9.858v-1.91h-4.5s.055 1.26 0 13.434h4.5v-7.496c0-.407.041-.8.15-1.098.329-.8 1.067-1.627 2.312-1.627 1.628 0 2.284 1.234 2.284 3.036v7.185H23v-7.7c0-4.12-2.216-6.046-5.184-6.046-2.397 0-3.468 1.302-4.062 2.222z" clip-rule="evenodd"/>
</svg>
