<svg xmlns="http://www.w3.org/2000/svg" width="23" height="19" fill="none" viewBox="0 0 23 19">
    <path fill="#fff" fill-rule="evenodd" d="M22.145 2.23c-.814.359-1.7.616-2.613.717.941-.573 1.658-1.475 1.995-2.549-.871.53-1.855.916-2.88 1.117-.83-.902-2.01-1.46-3.317-1.46-2.515 0-4.538 2.076-4.538 4.624 0 .358.042.716.112 1.06-3.766-.2-7.124-2.033-9.358-4.84-.394.687-.619 1.475-.619 2.334 0 1.604.801 3.021 2.024 3.852-.745-.029-1.447-.244-2.052-.587v.057c0 2.248 1.56 4.11 3.64 4.539-.38.1-.787.157-1.195.157-.295 0-.576-.028-.857-.071.576 1.832 2.248 3.164 4.244 3.207-1.56 1.246-3.513 1.976-5.635 1.976-.38 0-.73-.014-1.096-.057 2.01 1.317 4.398 2.076 6.97 2.076 8.346 0 12.913-7.045 12.913-13.159 0-.2 0-.4-.014-.601.885-.659 1.658-1.475 2.276-2.391z" clip-rule="evenodd"/>
    <mask id="prefix__a" width="23" height="19" x="0" y="0" maskUnits="userSpaceOnUse">
        <path fill="#fff" fill-rule="evenodd" d="M22.145 2.23c-.814.359-1.7.616-2.613.717.941-.573 1.658-1.475 1.995-2.549-.871.53-1.855.916-2.88 1.117-.83-.902-2.01-1.46-3.317-1.46-2.515 0-4.538 2.076-4.538 4.624 0 .358.042.716.112 1.06-3.766-.2-7.124-2.033-9.358-4.84-.394.687-.619 1.475-.619 2.334 0 1.604.801 3.021 2.024 3.852-.745-.029-1.447-.244-2.052-.587v.057c0 2.248 1.56 4.11 3.64 4.539-.38.1-.787.157-1.195.157-.295 0-.576-.028-.857-.071.576 1.832 2.248 3.164 4.244 3.207-1.56 1.246-3.513 1.976-5.635 1.976-.38 0-.73-.014-1.096-.057 2.01 1.317 4.398 2.076 6.97 2.076 8.346 0 12.913-7.045 12.913-13.159 0-.2 0-.4-.014-.601.885-.659 1.658-1.475 2.276-2.391z" clip-rule="evenodd"/>
    </mask>
</svg>
